name rise45.9887peak57.8056fall74.9286.mot
datacolumns 19
datarows 14
range 17.62160100000000 17.64326500000000
endheader
time	ground_force1_vx	ground_force1_vy	ground_force1_vz	ground_force1_px	ground_force1_py	ground_force1_pz	ground_force2_vx	ground_force2_vy	ground_force2_vz	ground_force2_px	ground_force2_py	ground_force2_pz	ground_torque1_x	ground_torque1_y	ground_torque1_z	ground_torque2_x	ground_torque2_y	ground_torque2_z	
17.62160100000000	-41.67089900000000	783.76624600000002	54.63676900000000	0.09473900000000	0.00000000000000	0.12213000000000	-2.78441400000000	22.70979200000000	4.25714900000000	0.00000000000000	0.00000000000000	0.00000000000000	0.00000000000000	20.76614700000000	0.00000000000000	0.00000000000000	1.15969400000000	0.00000000000000	
17.62327000000000	-42.13585700000000	781.90811699999995	54.56219700000000	0.09396500000000	0.00000000000000	0.12205300000000	-3.33556800000000	29.11415900000000	5.25532400000000	0.29022200000000	0.00000000000000	-0.06905100000000	0.00000000000000	20.73628800000000	0.00000000000000	0.00000000000000	2.74872700000000	0.00000000000000	
17.62493800000000	-42.61484900000000	779.95343400000002	54.46773800000000	0.09319900000000	0.00000000000000	0.12197300000000	-3.85907700000000	35.96870500000000	6.26579400000000	0.29784800000000	0.00000000000000	-0.06970900000000	0.00000000000000	20.70706600000000	0.00000000000000	0.00000000000000	3.35590800000000	0.00000000000000	
17.62659800000000	-43.10786300000000	777.90009599999996	54.35280200000000	0.09244100000000	0.00000000000000	0.12188900000000	-4.33192500000000	43.14276100000000	7.25776200000000	0.30461700000000	0.00000000000000	-0.07029200000000	0.00000000000000	20.67850000000000	0.00000000000000	0.00000000000000	3.97251800000000	0.00000000000000	
17.62827200000000	-43.61483600000000	775.74596299999996	54.21683000000000	0.09169300000000	0.00000000000000	0.12180200000000	-4.73341100000000	50.50708300000000	8.20250000000000	0.31067600000000	0.00000000000000	-0.07081600000000	0.00000000000000	20.65060000000000	0.00000000000000	0.00000000000000	4.58181800000000	0.00000000000000	
17.62993000000000	-44.13564900000000	773.48886100000004	54.05928700000000	0.09095400000000	0.00000000000000	0.12171100000000	-5.04645000000000	57.94360700000000	9.07526300000000	0.31613500000000	0.00000000000000	-0.07129000000000	0.00000000000000	20.62336600000000	0.00000000000000	0.00000000000000	5.16864400000000	0.00000000000000	
17.63159800000000	-44.67012700000000	771.12658299999998	53.87967400000000	0.09022400000000	0.00000000000000	0.12161700000000	-5.25842900000000	65.35312200000000	9.85667200000000	0.32108500000000	0.00000000000000	-0.07172300000000	0.00000000000000	20.59679100000000	0.00000000000000	0.00000000000000	5.72032800000000	0.00000000000000	
17.63326800000000	-45.21803600000000	768.65689499999996	53.67752300000000	0.08950300000000	0.00000000000000	0.12151900000000	-5.36160000000000	72.66028000000000	10.53344900000000	0.32559700000000	0.00000000000000	-0.07212300000000	0.00000000000000	20.57085600000000	0.00000000000000	0.00000000000000	6.22728100000000	0.00000000000000	
17.63493800000000	-45.77908300000000	766.07753800000000	53.45240100000000	0.08879200000000	0.00000000000000	0.12141700000000	-5.35300600000000	79.81587200000000	11.09856000000000	0.32972900000000	0.00000000000000	-0.07249500000000	0.00000000000000	20.54553300000000	0.00000000000000	0.00000000000000	6.68324500000000	0.00000000000000	
17.63660100000000	-46.35291300000000	763.38623399999994	53.20391500000000	0.08809000000000	0.00000000000000	0.12131200000000	-5.23403900000000	86.79657000000000	11.55080800000000	0.33352800000000	0.00000000000000	-0.07284300000000	0.00000000000000	20.52078300000000	0.00000000000000	0.00000000000000	7.08522300000000	0.00000000000000	
17.63826500000000	-46.93911100000000	760.58068900000001	52.93171000000000	0.08739800000000	0.00000000000000	0.12120400000000	-5.00971500000000	93.60259000000001	11.89402700000000	0.33703200000000	0.00000000000000	-0.07317100000000	0.00000000000000	20.49655700000000	0.00000000000000	0.00000000000000	7.43316100000000	0.00000000000000	
17.63993600000000	-47.53719600000000	757.65860299999997	52.63547400000000	0.08671500000000	0.00000000000000	0.12109100000000	-4.68777900000000	100.25381800000000	12.13599400000000	0.34027600000000	0.00000000000000	-0.07348200000000	0.00000000000000	20.47279600000000	0.00000000000000	0.00000000000000	7.72943300000000	0.00000000000000	
17.64160300000000	-48.14662500000000	754.61767099999997	52.31493800000000	0.08604200000000	0.00000000000000	0.12097500000000	-4.27774500000000	106.78500000000000	12.28721500000000	0.34328600000000	0.00000000000000	-0.07377800000000	0.00000000000000	20.44943000000000	0.00000000000000	0.00000000000000	7.97822400000000	0.00000000000000	
17.64326500000000	-48.76678800000000	751.45559200000002	51.96988000000000	0.08537800000000	0.00000000000000	0.12085600000000	-3.78995800000000	113.24054900000000	12.35969300000000	0.34608600000000	0.00000000000000	-0.07406300000000	0.00000000000000	20.42637800000000	0.00000000000000	0.00000000000000	8.18486900000000	0.00000000000000	
